# xmcd
#
# Track frame offsets: 
#        150
#        15049
#        25993
#        43582
#        58109
#        70280
#        80665
#        96584
#        109906
#        129782
#        139650
#        156274
#        178366
#        193126
#        208061
#        223828
#
# Disc length: 3253 seconds
#
# Revision: 0
# Processed by: cddbd v1.5.2PL0 Copyright (c) Steve Scherf et al.
# Submitted via: ExactAudioCopy v0.99pb5
#
DISCID=ee0cb310
DTITLE=Harrison Kennedy - One Dog Barkin'
DYEAR=2009
DGENRE=Blues
TTITLE0=One Dog Barkin'
TTITLE1=Cruise Control
TTITLE2=Them 90's Blues
TTITLE3=Leading Lady
TTITLE4=Could Be You, Could Be Me
TTITLE5=Hair Of The Dog
TTITLE6=Ode To Huddie
TTITLE7=You're The Difference
TTITLE8=Hogtown Blues
TTITLE9=Healing Power Of The Blues
TTITLE10=Cry For Mother Africa
TTITLE11=Mellow Down
TTITLE12=Look A Like
TTITLE13=What About Forgiving
TTITLE14=Motor City
TTITLE15=I Can Feel You Leaving
EXTD=
EXTT0=
EXTT1=
EXTT2=
EXTT3=
EXTT4=
EXTT5=
EXTT6=
EXTT7=
EXTT8=
EXTT9=
EXTT10=
EXTT11=
EXTT12=
EXTT13=
EXTT14=
EXTT15=
PLAYORDER=
